# xmcd database file
#
# Track frame offsets:
# 150
# 14166
# 40742
# 56759
# 73513
# 78781
# 88839
# 102636
# 121071
# 138090
# 155097
# 174169
# 187704
# 192334
# 209680
# 222065
# 241508
# 257742
# 273233
# 292135
#
# Disc length: 4090 seconds
#
# Revision: 3
# Processed by: cddbd v1.5.1PL0 Copyright (c) Steve Scherf et al.
# Submitted via: CD-Runner 2004.04
#
DISCID=1d0ff814
DTITLE=Phil Cooper, Margaret Nelson and Kate Early - Love and War
DYEAR=2005
DGENRE=Folk
TTITLE0=Bonny Light Horseman
TTITLE1=Kangaroo - Rolling of the Stone
TTITLE2=I Drew My Ship
TTITLE3=Adieu Sweet Lovely Nancy
TTITLE4=My Johnny Was A Shoemaker
TTITLE5=Water Bound
TTITLE6=Single Girl
TTITLE7=Pretty Susan
TTITLE8=Waters of Tyne
TTITLE9=No Telling
TTITLE10=Dives and Lazarus
TTITLE11=Quiet Where They Sleep
TTITLE12=Papa Stour
TTITLE13=Green Grow the Rushes
TTITLE14=A la claire fontaine
TTITLE15=Susie Cleland
TTITLE16=Neil Gow's Lament for the Death of His Second Wife
TTITLE17=Banks of the Bann
TTITLE18=Tenting on the Old Campground
TTITLE19=Let Peace Prevail
EXTD=
EXTT0=
EXTT1=
EXTT2=
EXTT3=
EXTT4=
EXTT5=
EXTT6=
EXTT7=
EXTT8=
EXTT9=
EXTT10=
EXTT11=
EXTT12=
EXTT13=
EXTT14=
EXTT15=
EXTT16=
EXTT17=
EXTT18=
EXTT19=
PLAYORDER=
